<svg width="262" height="65" viewBox="0 0 262 65" fill="none" xmlns="http://www.w3.org/2000/svg">
<path d="M236.27 23.8018C238.874 21.7236 241.478 19.6311 245.276 16.607C237.104 16.1341 230.544 15.7471 223.984 15.3888C218.344 15.0878 213.496 13.1243 209.323 9.183C206.489 6.50289 206.849 3.43581 208.69 1.21433C209.769 -0.0755639 213.05 -0.161543 215.179 0.153764C222.574 1.286 229.882 2.8912 237.248 4.22409C242.586 5.18434 247.995 5.77195 253.261 6.99018C257.792 8.0221 261.749 10.5876 261.993 15.6038C262.109 17.9973 260.699 21.351 258.828 22.8272C250.743 29.1907 242.312 35.1385 233.795 40.9287C232.486 41.8173 229.335 41.9176 228.343 40.986C226.688 39.4238 225.998 36.801 225.12 34.5222C224.919 33.9919 225.624 33.1177 226.329 31.3118C215.769 34.3073 206.115 36.801 196.634 39.8108C182.78 44.1964 169.17 49.356 155.229 53.3977C142.08 57.21 128.729 60.5064 115.291 63.1435C102.53 65.6516 92.9918 57.7546 92.7904 45.9306C92.7041 40.8713 89.6541 38.1196 85.0359 38.7932C75.7852 40.1404 66.4482 41.674 57.514 44.3254C47.3138 47.3495 37.43 51.4915 27.5607 55.5188C22.0506 57.7689 16.7994 60.6784 11.577 63.5592C7.36164 65.881 2.93051 65.4223 0.901976 61.997C-1.0834 58.6289 0.168249 55.0459 5.05976 52.896C17.864 47.2492 30.7258 41.7027 43.789 36.7007C52.7663 33.2467 62.0602 30.5952 71.3109 27.8864C80.6336 25.1633 89.7116 27.3418 97.8114 31.6701C100.746 33.2467 102.919 38.2916 103.393 42.0036C104.573 51.4198 104.472 52.5807 113.824 50.7032C131.879 47.0915 149.762 42.5626 167.587 37.8903C188.65 32.3724 209.554 26.2526 230.587 20.6344C232.27 20.1901 234.472 21.6233 236.428 22.1823C236.371 22.7269 236.299 23.2858 236.241 23.8305L236.27 23.8018Z" fill="#4F4F4F"/>
</svg>
