<svg width="67" height="113" viewBox="0 0 67 113" fill="none" xmlns="http://www.w3.org/2000/svg">
<path d="M33.421 22.3404C29.4634 19.6676 25.6618 17.6062 22.5552 14.7913C21.0658 13.4549 19.7323 10.1423 20.3848 8.6638C21.3352 6.54548 23.9595 4.35608 26.2575 3.81584C33.6054 2.0956 41.0952 0.588622 48.5992 0.048381C53.0391 -0.278607 57.6919 1.11467 62.0751 2.33732C63.2099 2.65009 64.1745 5.23753 64.3731 6.88669C65.366 14.9476 66.0044 23.0513 66.9264 31.1265C67.4229 35.4626 65.3944 38.4482 61.2381 37.3108C56.9968 36.1592 53.3229 32.9889 49.2375 31.0412C47.5495 30.2308 44.9678 29.4489 43.6202 30.1881C40.7973 31.7236 38.2865 34.0836 36.0452 36.4578C24.6262 48.4995 13.9873 61.1525 10.9801 78.1843C10.1148 83.0749 10.1432 88.264 10.6822 93.2115C11.3773 99.6659 15.5477 103.775 21.6473 105.893C22.6119 106.22 23.8319 106.405 24.4135 107.087C25.4206 108.281 26.0164 109.817 26.7824 111.21C25.2929 111.836 23.7183 113.144 22.314 112.987C13.4908 111.978 6.12879 106.789 2.88038 97.8888C-2.65184 82.7479 0.100063 68.1614 8.44095 55.0677C14.9094 44.9026 23.0517 35.8038 30.4564 26.2359C31.4777 24.9279 32.4706 23.5915 33.4352 22.312L33.421 22.3404Z" fill="#FFC300"/>
</svg>
