<svg width="107" height="150" viewBox="0 0 107 150" fill="none" xmlns="http://www.w3.org/2000/svg">
<path d="M38.4411 112.932C49.3355 105.413 57.1213 96.1532 64.461 86.6365C77.0824 70.2714 86.7534 52.2226 91.589 32.1192C93.575 23.8582 93.3016 15.0549 94.0643 6.50849C94.381 2.97007 95.1148 -0.0975021 99.8064 0.00237258C104.167 0.0879794 107.636 3.25543 106.902 7.84966C105.362 17.4519 104.182 27.2682 101.131 36.4281C96.626 49.9255 91.8912 63.6511 84.8681 75.9357C78.0322 87.8921 68.5481 98.4645 59.5535 109.065C54.8474 114.601 48.7742 119.01 43.1184 123.719C39.8803 126.415 39.5493 129.012 41.1612 132.893C42.7874 136.816 43.7229 141.182 43.9675 145.42C44.0539 146.946 41.1755 150.028 39.6932 150C32.9004 149.9 26.1221 148.901 19.3437 148.331C16.2063 148.059 12.997 147.617 9.91717 148.017C5.65729 148.559 1.36868 148.159 0.260532 143.95C-0.531001 140.968 0.577106 136.759 2.2897 133.977C6.96693 126.429 12.4789 119.395 17.5591 112.09C18.624 110.549 19.3581 108.752 20.0633 106.982C21.5456 103.244 23.2869 99.8199 28.1513 100.12C31.8787 100.348 37.9806 105.984 38.4556 109.508C38.5707 110.35 38.47 111.22 38.47 112.961L38.4411 112.932Z" fill="#FFC300"/>
</svg>
