<svg width="231" height="73" viewBox="0 0 231 73" fill="none" xmlns="http://www.w3.org/2000/svg">
<path d="M1.416 70H0.416V71H1.416V70ZM1.416 58.864V57.864H0.416V58.864H1.416ZM10.248 58.864V59.864H11.248V58.864H10.248ZM10.248 13.936H11.248V12.936H10.248V13.936ZM1.416 13.936H0.416V14.936H1.416V13.936ZM1.416 2.8V1.8H0.416V2.8H1.416ZM46.632 4.912L46.2081 5.81769L46.2196 5.82307L46.2312 5.82815L46.632 4.912ZM53.736 10.768L52.8976 11.313L52.9055 11.3252L52.9138 11.3372L53.736 10.768ZM54.6 28.336L55.4575 28.8505L55.4612 28.8443L55.4648 28.8381L54.6 28.336ZM50.472 32.848L51.0267 33.6801L51.0343 33.6749L50.472 32.848ZM46.056 35.056L45.7528 34.1031L45.056 34.3248V35.056H46.056ZM46.056 36.784H45.056V37.5478L45.7929 37.7488L46.056 36.784ZM50.664 38.992L50.1168 39.829L50.1282 39.8365L50.1399 39.8437L50.664 38.992ZM54.888 43.504L54.0232 44.0061L54.0292 44.0164L54.0354 44.0266L54.888 43.504ZM54.12 61.84L54.9552 62.39L54.9612 62.3808L54.12 61.84ZM46.92 67.888L46.5033 66.9789L46.4961 66.9823L46.92 67.888ZM22.92 58.48H21.92V59.48H22.92V58.48ZM41.448 56.464L40.8341 55.6746L40.8268 55.6803L40.8197 55.6861L41.448 56.464ZM41.544 43.984L42.1723 43.2061L41.544 43.984ZM22.92 41.968V40.968H21.92V41.968H22.92ZM22.92 30.448H21.92V31.448H22.92V30.448ZM41.064 28.432L40.4501 27.6426L40.4428 27.6483L40.4357 27.6541L41.064 28.432ZM41.16 16.336L40.5317 17.1139L40.5409 17.1214L40.5503 17.1286L41.16 16.336ZM22.92 14.32V13.32H21.92V14.32H22.92ZM1.416 70H2.416V58.864H1.416H0.416V70H1.416ZM1.416 58.864V59.864H10.248V58.864V57.864H1.416V58.864ZM10.248 58.864H11.248V13.936H10.248H9.248V58.864H10.248ZM10.248 13.936V12.936H1.416V13.936V14.936H10.248V13.936ZM1.416 13.936H2.416V2.8H1.416H0.416V13.936H1.416ZM1.416 2.8V3.8H35.976V2.8V1.8H1.416V2.8ZM35.976 2.8V3.8C39.9589 3.8 43.36 4.48455 46.2081 5.81769L46.632 4.912L47.0559 4.00631C43.888 2.52344 40.1851 1.8 35.976 1.8V2.8ZM46.632 4.912L46.2312 5.82815C49.1425 7.10184 51.3504 8.93278 52.8976 11.313L53.736 10.768L54.5744 10.223C52.7936 7.48322 50.2655 5.41015 47.0328 3.99584L46.632 4.912ZM53.736 10.768L52.9138 11.3372C54.5084 13.6405 55.328 16.442 55.328 19.792H56.328H57.328C57.328 16.102 56.4196 12.8875 54.5582 10.1988L53.736 10.768ZM56.328 19.792H55.328V20.752H56.328H57.328V19.792H56.328ZM56.328 20.752H55.328C55.328 23.7054 54.7736 26.0456 53.7352 27.8339L54.6 28.336L55.4648 28.8381C56.7304 26.6584 57.328 23.9426 57.328 20.752H56.328ZM54.6 28.336L53.7425 27.8215C52.6534 29.6367 51.3724 31.0265 49.9097 32.0211L50.472 32.848L51.0343 33.6749C52.7716 32.4935 54.2426 30.8753 55.4575 28.8505L54.6 28.336ZM50.472 32.848L49.9173 32.0159C48.4406 33.0004 47.0528 33.6894 45.7528 34.1031L46.056 35.056L46.3592 36.0089C47.8752 35.5266 49.4314 34.7436 51.0267 33.68L50.472 32.848ZM46.056 35.056H45.056V36.784H46.056H47.056V35.056H46.056ZM46.056 36.784L45.7929 37.7488C47.071 38.0973 48.5108 38.7789 50.1168 39.829L50.664 38.992L51.2113 38.155C49.4892 37.0291 47.857 36.2387 46.3191 35.8192L46.056 36.784ZM50.664 38.992L50.1399 39.8437C51.6406 40.7671 52.9397 42.1401 54.0232 44.0061L54.888 43.504L55.7528 43.0019C54.5323 40.8999 53.0154 39.2649 51.1881 38.1403L50.664 38.992ZM54.888 43.504L54.0354 44.0266C55.1253 45.8049 55.712 48.1979 55.712 51.28H56.712H57.712C57.712 47.9621 57.0827 45.1711 55.7406 42.9814L54.888 43.504ZM56.712 51.28H55.712V52.24H56.712H57.712V51.28H56.712ZM56.712 52.24H55.712C55.712 55.7919 54.8873 58.7972 53.2788 61.2992L54.12 61.84L54.9612 62.3808C56.8088 59.5068 57.712 56.1121 57.712 52.24H56.712ZM54.12 61.84L53.2848 61.29C51.6677 63.7456 49.4184 65.6429 46.5033 66.9789L46.92 67.888L47.3367 68.7971C50.5657 67.3171 53.1163 65.1824 54.9552 62.39L54.12 61.84ZM46.92 67.888L46.4961 66.9823C43.6461 68.3163 40.2763 69 36.36 69V70V71C40.5077 71 44.1779 70.2757 47.3439 68.7937L46.92 67.888ZM36.36 70V69H1.416V70V71H36.36V70ZM22.92 58.48V59.48H34.824V58.48V57.48H22.92V58.48ZM34.824 58.48V59.48C37.7382 59.48 40.1888 58.7665 42.0763 57.2419L41.448 56.464L40.8197 55.6861C39.3792 56.8495 37.4138 57.48 34.824 57.48V58.48ZM41.448 56.464L42.0619 57.2533C44.0698 55.6917 45.04 53.4595 45.04 50.704H44.04H43.04C43.04 52.9405 42.2822 54.5483 40.8341 55.6746L41.448 56.464ZM44.04 50.704H45.04V49.744H44.04H43.04V50.704H44.04ZM44.04 49.744H45.04C45.04 47.0023 44.112 44.7727 42.1723 43.2061L41.544 43.984L40.9157 44.7619C42.304 45.8833 43.04 47.4937 43.04 49.744H44.04ZM41.544 43.984L42.1723 43.2061C40.281 41.6784 37.7958 40.968 34.824 40.968V41.968V42.968C37.4842 42.968 39.479 43.6016 40.9157 44.7619L41.544 43.984ZM34.824 41.968V40.968H22.92V41.968V42.968H34.824V41.968ZM22.92 41.968H21.92V58.48H22.92H23.92V41.968H22.92ZM22.92 30.448V31.448H34.632V30.448V29.448H22.92V30.448ZM34.632 30.448V31.448C37.4312 31.448 39.8129 30.728 41.6923 29.2099L41.064 28.432L40.4357 27.6541C38.9871 28.824 37.0808 29.448 34.632 29.448V30.448ZM41.064 28.432L41.6779 29.2213C43.6716 27.6707 44.656 25.5115 44.656 22.864H43.656H42.656C42.656 24.9525 41.9124 26.5052 40.4501 27.6426L41.064 28.432ZM43.656 22.864H44.656V21.904H43.656H42.656V22.864H43.656ZM43.656 21.904H44.656C44.656 19.2172 43.7208 17.0442 41.7697 15.5434L41.16 16.336L40.5503 17.1286C41.9272 18.1878 42.656 19.7268 42.656 21.904H43.656ZM41.16 16.336L41.7883 15.5581C39.9048 14.0367 37.4887 13.32 34.632 13.32V14.32V15.32C37.1514 15.32 39.0872 15.9473 40.5317 17.1139L41.16 16.336ZM34.632 14.32V13.32H22.92V14.32V15.32H34.632V14.32ZM22.92 14.32H21.92V30.448H22.92H23.92V14.32H22.92ZM76.782 68.272L76.2502 69.1189L76.2617 69.1261L76.2733 69.1329L76.782 68.272ZM68.046 22.384V21.384H67.046V22.384H68.046ZM80.142 22.384H81.142V21.384H80.142V22.384ZM82.734 57.904L82.0142 58.5981L82.0205 58.6047L82.0269 58.6111L82.734 57.904ZM98.958 56.944L99.723 57.5882L99.7311 57.5783L98.958 56.944ZM102.03 22.384V21.384H101.03V22.384H102.03ZM114.126 22.384H115.126V21.384H114.126V22.384ZM114.126 70V71H115.126V70H114.126ZM102.222 70H101.222V71H102.222V70ZM102.222 63.76H103.222V62.76H102.222V63.76ZM100.494 63.76V62.76H99.8648L99.5925 63.3273L100.494 63.76ZM96.174 68.464L96.7622 69.2727L96.174 68.464ZM86.574 70.768V69.768C83.0163 69.768 79.9328 68.9723 77.2907 67.4111L76.782 68.272L76.2733 69.1329C79.2632 70.8997 82.7077 71.768 86.574 71.768V70.768ZM76.782 68.272L77.3138 67.4251C74.7207 65.7969 72.6979 63.5672 71.2406 60.7132L70.35 61.168L69.4594 61.6228C71.0741 64.7848 73.3393 67.2911 76.2502 69.1189L76.782 68.272ZM70.35 61.168L71.2406 60.7132C69.787 57.8665 69.046 54.5706 69.046 50.8H68.046H67.046C67.046 54.8374 67.841 58.4535 69.4594 61.6228L70.35 61.168ZM68.046 50.8H69.046V22.384H68.046H67.046V50.8H68.046ZM68.046 22.384V23.384H80.142V22.384V21.384H68.046V22.384ZM80.142 22.384H79.142V49.84H80.142H81.142V22.384H80.142ZM80.142 49.84H79.142C79.142 53.5692 80.0405 56.5514 82.0142 58.5981L82.734 57.904L83.4538 57.2099C81.9715 55.6726 81.142 53.2788 81.142 49.84H80.142ZM82.734 57.904L82.0269 58.6111C84.0562 60.6404 86.8686 61.592 90.318 61.592V60.592V59.592C87.2394 59.592 84.9958 58.7516 83.4411 57.1969L82.734 57.904ZM90.318 60.592V61.592C94.2701 61.592 97.4522 60.2846 99.7229 57.5881L98.958 56.944L98.1931 56.2999C96.3678 58.4674 93.7899 59.592 90.318 59.592V60.592ZM98.958 56.944L99.7311 57.5783C101.972 54.8475 103.03 51.1387 103.03 46.576H102.03H101.03C101.03 50.8453 100.04 54.0485 98.1849 56.3097L98.958 56.944ZM102.03 46.576H103.03V22.384H102.03H101.03V46.576H102.03ZM102.03 22.384V23.384H114.126V22.384V21.384H102.03V22.384ZM114.126 22.384H113.126V70H114.126H115.126V22.384H114.126ZM114.126 70V69H102.222V70V71H114.126V70ZM102.222 70H103.222V63.76H102.222H101.222V70H102.222ZM102.222 63.76V62.76H100.494V63.76V64.76H102.222V63.76ZM100.494 63.76L99.5925 63.3273C98.9221 64.724 97.6224 66.1741 95.5858 67.6553L96.174 68.464L96.7622 69.2727C98.9496 67.6819 100.53 65.996 101.396 64.1927L100.494 63.76ZM96.174 68.464L95.5858 67.6553C93.7232 69.0099 90.7745 69.768 86.574 69.768V70.768V71.768C90.9495 71.768 94.4008 70.9901 96.7622 69.2727L96.174 68.464ZM128.546 70H127.546V71H128.546V70ZM128.546 22.384V21.384H127.546V22.384H128.546ZM140.642 22.384H141.642V21.384H140.642V22.384ZM140.642 70V71H141.642V70H140.642ZM129.026 14.704L128.335 15.4266L128.343 15.434L128.351 15.4412L129.026 14.704ZM129.026 3.568L128.351 2.83084L128.343 2.83802L128.335 2.84536L129.026 3.568ZM128.546 70H129.546V22.384H128.546H127.546V70H128.546ZM128.546 22.384V23.384H140.642V22.384V21.384H128.546V22.384ZM140.642 22.384H139.642V70H140.642H141.642V22.384H140.642ZM140.642 70V69H128.546V70V71H140.642V70ZM134.594 16.816V15.816C132.656 15.816 131.045 15.1977 129.702 13.9668L129.026 14.704L128.351 15.4412C130.08 17.0263 132.18 17.816 134.594 17.816V16.816ZM129.026 14.704L129.717 13.9814C128.469 12.7875 127.818 11.2063 127.818 9.136H126.818H125.818C125.818 11.6737 126.639 13.8045 128.335 15.4266L129.026 14.704ZM126.818 9.136H127.818C127.818 7.06565 128.469 5.48446 129.717 4.29064L129.026 3.568L128.335 2.84536C126.639 4.46753 125.818 6.59834 125.818 9.136H126.818ZM129.026 3.568L129.702 4.30515C131.045 3.07427 132.656 2.456 134.594 2.456V1.456V0.455996C132.18 0.455996 130.08 1.24572 128.351 2.83084L129.026 3.568ZM134.594 1.456V2.456C136.605 2.456 138.204 3.07911 139.471 4.29064L140.162 3.568L140.853 2.84536C139.176 1.24088 137.064 0.455996 134.594 0.455996V1.456ZM140.162 3.568L139.471 4.29064C140.719 5.48446 141.37 7.06565 141.37 9.136H142.37H143.37C143.37 6.59834 142.549 4.46753 140.853 2.84536L140.162 3.568ZM142.37 9.136H141.37C141.37 11.2063 140.719 12.7875 139.471 13.9814L140.162 14.704L140.853 15.4266C142.549 13.8045 143.37 11.6737 143.37 9.136H142.37ZM140.162 14.704L139.471 13.9814C138.204 15.1929 136.605 15.816 134.594 15.816V16.816V17.816C137.064 17.816 139.176 17.0311 140.853 15.4266L140.162 14.704ZM155.006 70H154.006V71H155.006V70ZM155.006 2.8V1.8H154.006V2.8H155.006ZM167.102 2.8H168.102V1.8H167.102V2.8ZM167.102 70V71H168.102V70H167.102ZM155.006 70H156.006V2.8H155.006H154.006V70H155.006ZM155.006 2.8V3.8H167.102V2.8V1.8H155.006V2.8ZM167.102 2.8H166.102V70H167.102H168.102V2.8H167.102ZM167.102 70V69H155.006V70V71H167.102V70ZM190.01 68.56L189.503 69.4219L189.513 69.4278L189.523 69.4334L190.01 68.56ZM182.138 60.208L183.017 59.7302L182.138 60.208ZM182.138 32.176L183.017 32.6538L182.138 32.176ZM190.01 23.92L190.505 24.7893L190.511 24.7857L190.517 24.7819L190.01 23.92ZM207.866 22.096L207.522 23.0349L207.54 23.0417L207.559 23.0477L207.866 22.096ZM212.666 24.592L212.022 25.3569L212.666 24.592ZM215.45 27.856L214.576 28.3416L214.862 28.856H215.45V27.856ZM217.178 27.856V28.856H218.178V27.856H217.178ZM217.178 2.8V1.8H216.178V2.8H217.178ZM229.274 2.8H230.274V1.8H229.274V2.8ZM229.274 70V71H230.274V70H229.274ZM217.37 70H216.37V71H217.37V70ZM217.37 64.24H218.37V63.24H217.37V64.24ZM215.642 64.24V63.24H215.08L214.787 63.721L215.642 64.24ZM210.554 69.136L210.016 68.2932L210.005 68.3003L210.554 69.136ZM213.626 57.232L214.315 57.9575L214.324 57.9482L213.626 57.232ZM213.626 35.248L212.919 35.9551L212.928 35.9644L212.938 35.9735L213.626 35.248ZM195.002 35.248L195.691 35.9735L195.7 35.9642L195.002 35.248ZM195.002 57.232L194.304 57.9483L194.314 57.9575L195.002 57.232ZM200.666 71.344V70.344C197.062 70.344 193.678 69.4604 190.497 67.6866L190.01 68.56L189.523 69.4334C192.999 71.3716 196.718 72.344 200.666 72.344V71.344ZM190.01 68.56L190.517 67.6981C187.425 65.8788 184.923 63.2347 183.017 59.7302L182.138 60.208L181.26 60.6858C183.322 64.4773 186.068 67.4012 189.503 69.4219L190.01 68.56ZM182.138 60.208L183.017 59.7302C181.13 56.2609 180.162 52.0179 180.162 46.96H179.162H178.162C178.162 52.2701 179.179 56.8591 181.26 60.6858L182.138 60.208ZM179.162 46.96H180.162V45.424H179.162H178.162V46.96H179.162ZM179.162 45.424H180.162C180.162 40.3661 181.13 36.1231 183.017 32.6538L182.138 32.176L181.26 31.6982C179.179 35.5249 178.162 40.1139 178.162 45.424H179.162ZM182.138 32.176L183.017 32.6538C184.921 29.1516 187.419 26.5436 190.505 24.7893L190.01 23.92L189.516 23.0507C186.073 25.0084 183.323 27.9044 181.26 31.6982L182.138 32.176ZM190.01 23.92L190.517 24.7819C193.625 22.9537 197.002 22.04 200.666 22.04V21.04V20.04C196.651 20.04 192.923 21.0463 189.503 23.0581L190.01 23.92ZM200.666 21.04V22.04C203.473 22.04 205.747 22.3841 207.522 23.0349L207.866 22.096L208.211 21.1571C206.145 20.3998 203.619 20.04 200.666 20.04V21.04ZM207.866 22.096L207.559 23.0477C209.456 23.6597 210.931 24.438 212.022 25.3569L212.666 24.592L213.31 23.8271C211.97 22.698 210.244 21.8123 208.173 21.1443L207.866 22.096ZM212.666 24.592L212.022 25.3569C213.164 26.3183 214.006 27.3154 214.576 28.3416L215.45 27.856L216.324 27.3704C215.615 26.0926 214.601 24.9137 213.31 23.8271L212.666 24.592ZM215.45 27.856V28.856H217.178V27.856V26.856H215.45V27.856ZM217.178 27.856H218.178V2.8H217.178H216.178V27.856H217.178ZM217.178 2.8V3.8H229.274V2.8V1.8H217.178V2.8ZM229.274 2.8H228.274V70H229.274H230.274V2.8H229.274ZM229.274 70V69H217.37V70V71H229.274V70ZM217.37 70H218.37V64.24H217.37H216.37V70H217.37ZM217.37 64.24V63.24H215.642V64.24V65.24H217.37V64.24ZM215.642 64.24L214.787 63.721C213.799 65.3488 212.229 66.8795 210.016 68.2933L210.554 69.136L211.093 69.9787C213.488 68.4485 215.309 66.7152 216.497 64.759L215.642 64.24ZM210.554 69.136L210.005 68.3003C208.001 69.6173 204.934 70.344 200.666 70.344V71.344V72.344C205.103 72.344 208.628 71.5987 211.103 69.9717L210.554 69.136ZM204.314 60.784V61.784C208.26 61.784 211.617 60.5164 214.315 57.9575L213.626 57.232L212.938 56.5065C210.643 58.6836 207.792 59.784 204.314 59.784V60.784ZM213.626 57.232L214.324 57.9482C217.07 55.2731 218.37 51.4593 218.37 46.672H217.37H216.37C216.37 51.1007 215.175 54.3269 212.928 56.5158L213.626 57.232ZM217.37 46.672H218.37V45.712H217.37H216.37V46.672H217.37ZM217.37 45.712H218.37C218.37 40.9265 217.07 37.137 214.315 34.5225L213.626 35.248L212.938 35.9735C215.174 38.095 216.37 41.2815 216.37 45.712H217.37ZM213.626 35.248L214.333 34.5409C211.695 31.9021 208.327 30.6 204.314 30.6V31.6V32.6C207.854 32.6 210.694 33.7299 212.919 35.9551L213.626 35.248ZM204.314 31.6V30.6C200.36 30.6 197 31.9051 194.304 34.5318L195.002 35.248L195.7 35.9642C197.996 33.7269 200.844 32.6 204.314 32.6V31.6ZM195.002 35.248L194.314 34.5225C191.558 37.137 190.258 40.9265 190.258 45.712H191.258H192.258C192.258 41.2815 193.454 38.095 195.691 35.9735L195.002 35.248ZM191.258 45.712H190.258V46.672H191.258H192.258V45.712H191.258ZM191.258 46.672H190.258C190.258 51.4593 191.559 55.2731 194.304 57.9482L195.002 57.232L195.7 56.5158C193.454 54.3269 192.258 51.1007 192.258 46.672H191.258ZM195.002 57.232L194.314 57.9575C197.011 60.5164 200.368 61.784 204.314 61.784V60.784V59.784C200.836 59.784 197.985 58.6836 195.691 56.5065L195.002 57.232Z" fill="url(#paint0_linear_487_1468)"/>
<defs>
<linearGradient id="paint0_linear_487_1468" x1="116.5" y1="-24" x2="116.5" y2="98" gradientUnits="userSpaceOnUse">
<stop stop-color="#B28E00" stop-opacity="0.35"/>
<stop offset="0.860577" stop-color="#CBA200" stop-opacity="0"/>
</linearGradient>
</defs>
</svg>
