<svg width="420" height="163" viewBox="0 0 420 163" fill="none" xmlns="http://www.w3.org/2000/svg">
<path d="M8.448 126V36.4H64.768V51.76H25.344V73.392H61.696V88.752H25.344V126H8.448ZM107.043 127.792C100.728 127.792 95.0537 126.512 90.019 123.952C84.9843 121.392 81.0163 117.68 78.115 112.816C75.2137 107.952 73.763 102.107 73.763 95.28V93.232C73.763 86.4053 75.2137 80.56 78.115 75.696C81.0163 70.832 84.9843 67.12 90.019 64.56C95.0537 62 100.728 60.72 107.043 60.72C113.358 60.72 119.032 62 124.067 64.56C129.102 67.12 133.07 70.832 135.971 75.696C138.872 80.56 140.323 86.4053 140.323 93.232V95.28C140.323 102.107 138.872 107.952 135.971 112.816C133.07 117.68 129.102 121.392 124.067 123.952C119.032 126.512 113.358 127.792 107.043 127.792ZM107.043 113.456C111.992 113.456 116.088 111.877 119.331 108.72C122.574 105.477 124.195 100.869 124.195 94.896V93.616C124.195 87.6427 122.574 83.0773 119.331 79.92C116.174 76.6773 112.078 75.056 107.043 75.056C102.094 75.056 97.9977 76.6773 94.755 79.92C91.5123 83.0773 89.891 87.6427 89.891 93.616V94.896C89.891 100.869 91.5123 105.477 94.755 108.72C97.9977 111.877 102.094 113.456 107.043 113.456ZM155.21 126V62.512H171.082V69.68H173.386C174.325 67.12 175.861 65.2427 177.994 64.048C180.213 62.8533 182.773 62.256 185.674 62.256H193.354V76.592H185.418C181.322 76.592 177.951 77.7013 175.306 79.92C172.661 82.0533 171.338 85.3813 171.338 89.904V126H155.21ZM205.96 126V62.512H221.832V69.424H224.136C225.245 67.2907 227.08 65.456 229.64 63.92C232.2 62.2987 235.571 61.488 239.752 61.488C244.275 61.488 247.901 62.384 250.632 64.176C253.363 65.8827 255.453 68.144 256.904 70.96H259.208C260.659 68.2293 262.707 65.968 265.352 64.176C267.997 62.384 271.752 61.488 276.616 61.488C280.541 61.488 284.083 62.3413 287.24 64.048C290.483 65.6693 293.043 68.1867 294.92 71.6C296.883 74.928 297.864 79.152 297.864 84.272V126H281.736V85.424C281.736 81.9253 280.84 79.3227 279.048 77.616C277.256 75.824 274.739 74.928 271.496 74.928C267.827 74.928 264.968 76.1227 262.92 78.512C260.957 80.816 259.976 84.144 259.976 88.496V126H243.848V85.424C243.848 81.9253 242.952 79.3227 241.16 77.616C239.368 75.824 236.851 74.928 233.608 74.928C229.939 74.928 227.08 76.1227 225.032 78.512C223.069 80.816 222.088 84.144 222.088 88.496V126H205.96ZM315.21 126V36.4H331.338V126H315.21ZM356.122 151.6V137.52H390.682C393.071 137.52 394.266 136.24 394.266 133.68V117.68H391.962C391.279 119.131 390.213 120.581 388.762 122.032C387.311 123.483 385.349 124.677 382.874 125.616C380.399 126.555 377.242 127.024 373.402 127.024C368.453 127.024 364.101 125.915 360.346 123.696C356.677 121.392 353.818 118.235 351.77 114.224C349.722 110.213 348.698 105.605 348.698 100.4V62.512H364.826V99.12C364.826 103.899 365.978 107.483 368.282 109.872C370.671 112.261 374.042 113.456 378.394 113.456C383.343 113.456 387.183 111.835 389.914 108.592C392.645 105.264 394.01 100.656 394.01 94.768V62.512H410.138V137.264C410.138 141.616 408.858 145.072 406.298 147.632C403.738 150.277 400.325 151.6 396.058 151.6H356.122Z" fill="#4F4F4F"/>
<path d="M322.436 150.169C286.179 149.498 249.942 148.54 213.684 148.198C160.965 147.705 108.204 147.047 55.628 150.704C44.9737 151.443 34.3193 152.128 23.6854 152.895C15.3419 153.483 10.1477 151.607 8.36858 147.253C6.87574 143.597 10.0454 140.365 15.5668 141.063C34.6874 143.46 53.3581 139.94 72.2537 139.625C107.693 139.023 143.133 138.27 178.593 138.037C204.482 137.873 230.412 138.283 256.302 138.735C277.713 139.119 299.103 139.94 320.514 140.584C321.761 140.625 323.091 140.652 324.215 140.981C328.633 142.282 335.34 143.021 333.765 147.184C333.009 149.17 326.997 150.279 323.356 151.772C323.05 151.238 322.763 150.703 322.457 150.169H322.436Z" fill="#FFCC00"/>
</svg>
